<?xml version="1.0" encoding="UTF-8" standalone="no"?>
<!-- Created with Inkscape (http://www.inkscape.org/) -->

<svg
   width="210mm"
   height="297mm"
   viewBox="0 0 210 297"
   version="1.1"
   id="svg1"
   inkscape:version="1.3.2 (091e20ef0f, 2023-11-25, custom)"
   sodipodi:docname="lfa_gauge.svg"
   inkscape:export-filename="lfa_gauge.png"
   inkscape:export-xdpi="520.19202"
   inkscape:export-ydpi="520.19202"
   xmlns:inkscape="http://www.inkscape.org/namespaces/inkscape"
   xmlns:sodipodi="http://sodipodi.sourceforge.net/DTD/sodipodi-0.dtd"
   xmlns:xlink="http://www.w3.org/1999/xlink"
   xmlns="http://www.w3.org/2000/svg"
   xmlns:svg="http://www.w3.org/2000/svg">
  <sodipodi:namedview
     id="namedview1"
     pagecolor="#ffffff"
     bordercolor="#999999"
     borderopacity="1"
     inkscape:showpageshadow="2"
     inkscape:pageopacity="0"
     inkscape:pagecheckerboard="0"
     inkscape:deskcolor="#d1d1d1"
     inkscape:document-units="mm"
     inkscape:zoom="0.57518935"
     inkscape:cx="172.98651"
     inkscape:cy="417.2539"
     inkscape:window-width="1920"
     inkscape:window-height="1007"
     inkscape:window-x="0"
     inkscape:window-y="0"
     inkscape:window-maximized="1"
     inkscape:current-layer="layer1"
     showgrid="false" />
  <defs
     id="defs1">
    <linearGradient
       id="linearGradient6"
       inkscape:collect="always">
      <stop
         style="stop-color:#000000;stop-opacity:1;"
         offset="0.4370555"
         id="stop3" />
      <stop
         style="stop-color:#131313;stop-opacity:1;"
         offset="0.70895123"
         id="stop4" />
      <stop
         style="stop-color:#2d1616;stop-opacity:1;"
         offset="0.8537364"
         id="stop5" />
      <stop
         style="stop-color:#f20f0f;stop-opacity:1;"
         offset="0.99852151"
         id="stop6" />
    </linearGradient>
    <linearGradient
       id="linearGradient9"
       inkscape:collect="always">
      <stop
         style="stop-color:#ffffff;stop-opacity:1;"
         offset="0.90728068"
         id="stop9" />
      <stop
         style="stop-color:#c0c0c0;stop-opacity:0;"
         offset="1"
         id="stop10" />
    </linearGradient>
    <rect
       x="344.36062"
       y="624.2258"
       width="126.18202"
       height="34.301821"
       id="rect1" />
    <inkscape:path-effect
       effect="skeletal"
       id="path-effect15"
       is_visible="true"
       lpeversion="1"
       pattern="#path1-6"
       copytype="repeated_stretched"
       prop_scale="0.29"
       scale_y_rel="false"
       spacing="1"
       normal_offset="0"
       tang_offset="78"
       prop_units="false"
       vertical_pattern="false"
       hide_knot="false"
       fuse_tolerance="0" />
    <inkscape:path-effect
       effect="skeletal"
       id="path-effect14"
       is_visible="true"
       lpeversion="1"
       pattern="m -71.239425,-66.507981 h 1.000004"
       copytype="repeated"
       prop_scale="1"
       scale_y_rel="false"
       spacing="0"
       normal_offset="0"
       tang_offset="0"
       prop_units="false"
       vertical_pattern="false"
       hide_knot="false"
       fuse_tolerance="0" />
    <linearGradient
       id="linearGradient1"
       inkscape:collect="always">
      <stop
         style="stop-color:#000000;stop-opacity:1;"
         offset="0.4370555"
         id="stop1" />
      <stop
         style="stop-color:#131313;stop-opacity:1;"
         offset="0.70895123"
         id="stop13" />
      <stop
         style="stop-color:#271818;stop-opacity:1;"
         offset="0.8537364"
         id="stop14" />
      <stop
         style="stop-color:#790b0b;stop-opacity:1;"
         offset="0.99852151"
         id="stop2" />
    </linearGradient>
    <radialGradient
       inkscape:collect="always"
       xlink:href="#linearGradient1"
       id="radialGradient2"
       cx="105"
       cy="148.5"
       fx="105"
       fy="148.5"
       r="50"
       gradientUnits="userSpaceOnUse"
       gradientTransform="translate(3.0854492e-6,1.6609863e-5)" />
    <radialGradient
       inkscape:collect="always"
       xlink:href="#linearGradient9"
       id="radialGradient10"
       cx="105"
       cy="148.5"
       fx="105"
       fy="148.5"
       r="52.602402"
       gradientTransform="matrix(1,0,0,0.99992756,0,0.01075761)"
       gradientUnits="userSpaceOnUse" />
    <radialGradient
       inkscape:collect="always"
       xlink:href="#linearGradient6"
       id="radialGradient3"
       gradientUnits="userSpaceOnUse"
       gradientTransform="translate(1.2587891e-6,1.5928711e-5)"
       cx="105"
       cy="148.5"
       fx="105"
       fy="148.5"
       r="50" />
  </defs>
  <g
     inkscape:label="Layer 1"
     inkscape:groupmode="layer"
     id="layer1">
    <circle
       style="opacity:1;fill:url(#radialGradient2);fill-opacity:1;stroke:none;stroke-width:0.264999;stroke-linejoin:bevel;stroke-opacity:0.719264"
       id="circle1"
       r="50"
       cy="148.5"
       cx="105"
       inkscape:export-filename="../../Development/EngineSound/race_tach.png"
       inkscape:export-xdpi="520.19202"
       inkscape:export-ydpi="520.19202" />
    <path
       style="opacity:1;fill:url(#radialGradient3);fill-opacity:1;stroke:none;stroke-width:0.264999;stroke-linejoin:bevel;stroke-opacity:0.719264"
       id="circle2"
       inkscape:export-filename="../../Development/EngineSound/lfa.png"
       inkscape:export-xdpi="520.19202"
       inkscape:export-ydpi="520.19202"
       sodipodi:type="arc"
       sodipodi:cx="105"
       sodipodi:cy="148.5"
       sodipodi:rx="50"
       sodipodi:ry="50"
       sodipodi:start="5.7421332"
       sodipodi:end="0"
       sodipodi:arc-type="slice"
       d="M 147.85836,122.74809 A 50,50 0 0 1 155,148.5 h -50 z" />
    <path
       style="opacity:1;fill:url(#radialGradient10);stroke:none;stroke-width:0.2647;stroke-linejoin:bevel;stroke-dasharray:none;stroke-opacity:1"
       id="path1"
       d="m 105.57353,201.22459 -0.0681,-5.45592 c -0.16839,0.001 -0.33687,0.001 -0.50542,-1.2e-4 -0.21837,0.001 -0.4366,0.001 -0.6547,-0.001 l -0.0882,5.45378 c 0.24736,0.005 0.49499,0.009 0.74286,0.0102 0.19133,-0.001 0.38251,-0.003 0.57353,-0.007 z m -2.61021,-0.049 0.0323,-0.72945 c -0.19776,-0.009 -0.39533,-0.0201 -0.59271,-0.032 l -0.0417,0.72824 c 0.20052,0.0123 0.40124,0.0234 0.60215,0.0333 z m -1.88805,-0.12989 0.0617,-0.72545 c -0.19692,-0.0173 -0.39363,-0.0358 -0.59013,-0.0556 l -0.071,0.72404 c 0.19957,0.0202 0.39937,0.0392 0.59938,0.057 z m -1.876335,-0.2036 0.239286,-1.90466 c -0.190194,-0.024 -0.380173,-0.0493 -0.569929,-0.0757 l -0.263178,1.90042 c 0.197692,0.0279 0.395635,0.0545 0.593821,0.0799 z m -1.860791,-0.27552 0.118757,-0.71557 c -0.193991,-0.0325 -0.387723,-0.0661 -0.581187,-0.10094 l -0.127616,0.71377 c 0.196407,0.0354 0.393092,0.0697 0.590046,0.10274 z m -1.845983,-0.34624 0.146345,-0.70969 c -0.192282,-0.0398 -0.384278,-0.0808 -0.575982,-0.12291 l -0.155005,0.70768 c 0.194579,0.0428 0.389462,0.0845 0.584642,0.12492 z m -1.648058,-0.37109 1.271858,-5.24545 c -0.373685,-0.0904 -0.74624,-0.18575 -1.117581,-0.28606 l -1.408327,5.20953 c 0.416459,0.11266 0.834504,0.22002 1.25405,0.32198 z m -2.481046,-0.67055 0.206735,-0.69399 c -0.187424,-0.0558 -0.374506,-0.11271 -0.561237,-0.1707 l -0.214927,0.69154 c 0.189451,0.0588 0.379263,0.11654 0.569429,0.17315 z m -1.781963,-0.56619 0.232259,-0.68608 c -0.185551,-0.0627 -0.370733,-0.12653 -0.555537,-0.1914 l -0.240266,0.68342 c 0.187462,0.0658 0.375312,0.13045 0.563544,0.19406 z m -1.760587,-0.63057 0.679541,-1.79024 c -0.178514,-0.0677 -0.35665,-0.13644 -0.534402,-0.20619 l -0.700131,1.7827 c 0.184587,0.0723 0.369587,0.14354 0.554992,0.21373 z m -1.735509,-0.69263 0.281446,-0.66834 c -0.180583,-0.0759 -0.360744,-0.15277 -0.540474,-0.23067 l -0.289054,0.66528 c 0.182256,0.0789 0.364953,0.15685 0.548082,0.23373 z m -1.71102,-0.75401 0.305107,-0.65853 c -0.177853,-0.0822 -0.355259,-0.1654 -0.532208,-0.24958 l -0.312515,0.65528 c 0.179408,0.0853 0.359283,0.16956 0.539616,0.25283 z m -1.518247,-0.7302 2.428637,-4.83782 c -0.346236,-0.17446 -0.690577,-0.35317 -1.032939,-0.53605 l -2.544873,4.78168 c 0.380736,0.20196 0.763822,0.39939 1.149175,0.59219 z m -2.268288,-1.20267 0.356566,-0.6339 c -0.170708,-0.0958 -0.340912,-0.19252 -0.510603,-0.29018 l -0.363507,0.63021 c 0.171993,0.0989 0.344511,0.19686 0.517544,0.29387 z m -1.615655,-0.94227 0.378165,-0.62206 c -0.167783,-0.10177 -0.335033,-0.20446 -0.501742,-0.30805 l -0.38492,0.61815 c 0.16895,0.1049 0.338452,0.20889 0.508497,0.31196 z m -1.584569,-0.99728 1.054692,-1.6107 c -0.160444,-0.10498 -0.320349,-0.21082 -0.479707,-0.31751 l -1.071981,1.59987 c 0.165093,0.11033 0.330761,0.21978 0.496996,0.32834 z m -1.55,-1.04951 0.419496,-0.59647 c -0.160773,-0.11288 -0.320961,-0.22661 -0.480557,-0.3412 l -0.425853,0.59217 c 0.161704,0.11603 0.324011,0.2312 0.486914,0.3455 z m -1.515793,-1.10151 0.43923,-0.58273 c -0.157023,-0.11819 -0.313436,-0.2372 -0.46923,-0.35704 l -0.445386,0.57823 c 0.157836,0.12135 0.3163,0.24187 0.475386,0.36154 z m -1.334147,-1.03501 3.401801,-4.24658 c -0.304903,-0.24467 -0.607147,-0.49283 -0.906647,-0.74439 l -3.497803,4.1702 c 0.331129,0.27739 0.665373,0.55101 1.002649,0.82077 z m -1.972818,-1.65208 0.481759,-0.54918 c -0.147603,-0.1294 -0.29454,-0.25956 -0.440802,-0.39048 l -0.487451,0.54422 c 0.148149,0.13259 0.296983,0.2644 0.446494,0.39544 z m -1.38912,-1.25813 0.499431,-0.53341 c -0.143612,-0.13441 -0.286529,-0.26958 -0.428743,-0.40549 l -0.504935,0.52825 c 0.144038,0.13763 0.28879,0.27452 0.434247,0.41065 z m -1.348288,-1.30372 1.364741,-1.36607 c -0.135986,-0.13586 -0.27127,-0.27241 -0.405845,-0.40966 l -1.378728,1.35194 c 0.139209,0.14198 0.279156,0.28325 0.419832,0.42379 z m -1.304263,-1.34617 0.532908,-0.49997 c -0.134562,-0.14348 -0.268377,-0.28765 -0.401437,-0.43251 l -0.538013,0.4944 c 0.134751,0.14673 0.270267,0.29276 0.406542,0.43808 z m -1.260301,-1.38874 0.548714,-0.4823 c -0.129792,-0.14777 -0.258811,-0.2962 -0.387048,-0.4453 l -0.553618,0.47654 c 0.129862,0.15103 0.260515,0.30139 0.391952,0.45106 z m -1.095757,-1.28555 4.191349,-3.47172 c -0.249687,-0.301 -0.49595,-0.60471 -0.738704,-0.91107 l -4.267119,3.37511 c 0.267639,0.33893 0.539159,0.67485 0.814474,1.00768 z m -1.594637,-2.01878 0.582313,-0.43981 c -0.11811,-0.1566 -0.235391,-0.31381 -0.351835,-0.47162 l -0.586755,0.43361 c 0.117914,0.15989 0.236676,0.31917 0.356277,0.47782 z m -1.102358,-1.51375 0.596059,-0.42011 c -0.113041,-0.16066 -0.225224,-0.32191 -0.336541,-0.48373 l -0.600311,0.4137 c 0.112724,0.16397 0.226324,0.32735 0.340793,0.49014 z m -1.051743,-1.5499 1.609685,-1.05634 c -0.105138,-0.16034 -0.209412,-0.32122 -0.312816,-0.48263 l -1.620371,1.03889 c 0.106937,0.16726 0.214774,0.33395 0.323502,0.50008 z m -0.9983,-1.5826 0.621683,-0.37882 c -0.10195,-0.16768 -0.202991,-0.33589 -0.303113,-0.50463 l -0.625535,0.37201 c 0.101396,0.17102 0.20372,0.3415 0.306965,0.51144 z m -0.944544,-1.6157 0.633559,-0.35723 c -0.09616,-0.17095 -0.191382,-0.3424 -0.285662,-0.51436 l -0.637212,0.35022 c 0.09549,0.1743 0.191927,0.34809 0.289315,0.52137 z m -0.803077,-1.48179 4.797281,-2.51325 c -0.180589,-0.34344 -0.356987,-0.68884 -0.529112,-1.03611 l -4.852818,2.39641 c 0.190266,0.38658 0.385177,0.77093 0.584649,1.15295 z m -1.133745,-2.30277 0.658228,-0.30581 c -0.08223,-0.17742 -0.163463,-0.35529 -0.243701,-0.5336 l -0.661421,0.29836 c 0.08129,0.1808 0.163592,0.36115 0.246894,0.54105 z m -0.75537,-1.70915 0.668048,-0.28219 c -0.07607,-0.1805 -0.151116,-0.36142 -0.225135,-0.54276 l -0.671048,0.27452 c 0.07501,0.1839 0.151056,0.36738 0.228135,0.55043 z m -0.694934,-1.73582 1.789527,-0.6815 c -0.0679,-0.17844 -0.134777,-0.35726 -0.20062,-0.53645 l -1.796912,0.66076 c 0.06828,0.18613 0.137614,0.37186 0.208005,0.55719 z m -0.632108,-1.7588 0.685818,-0.23304 c -0.06294,-0.18548 -0.124801,-0.37133 -0.185585,-0.55754 l -0.688419,0.22497 c 0.06164,0.18891 0.124371,0.37745 0.188186,0.56561 z m -0.568525,-1.78241 0.693767,-0.20752 c -0.05612,-0.18772 -0.111152,-0.37579 -0.165072,-0.5642 l -0.696168,0.19925 c 0.05471,0.19117 0.110537,0.382 0.167473,0.57247 z m -0.456107,-1.62374 5.219597,-1.37116 c -0.09761,-0.372 -0.190256,-0.74519 -0.277869,-1.11949 l -5.2549,1.23408 c 0.09901,0.42036 0.203427,0.83925 0.313172,1.25657 z m -0.59014,-2.50405 0.709505,-0.14716 c -0.03996,-0.19186 -0.07876,-0.38399 -0.116402,-0.57641 l -0.711448,0.13847 c 0.03828,0.19533 0.07773,0.39036 0.118345,0.5851 z m -0.348157,-1.84432 0.7154,-0.11961 c -0.03269,-0.19395 -0.0642,-0.38815 -0.09452,-0.5826 l -0.717148,0.1107 c 0.03089,0.19743 0.06299,0.39461 0.09627,0.59151 z m -0.277859,-1.86146 1.904265,-0.24156 c -0.02428,-0.19016 -0.04736,-0.38053 -0.06926,-0.5711 l -1.908349,0.21751 c 0.02323,0.19862 0.04768,0.39701 0.07334,0.59515 z m -0.205691,-1.87478 0.725316,-0.0626 c -0.01752,-0.19687 -0.03381,-0.39396 -0.04885,-0.59125 l -0.726664,0.0533 c 0.01548,0.2004 0.03222,0.40059 0.0502,0.60057 z m -0.13224,-1.88885 0.729335,-0.0332 c -0.0097,-0.1981 -0.01812,-0.39639 -0.02528,-0.59485 l -0.730485,0.0237 c 0.0075,0.20164 0.01634,0.4031 0.02643,0.60437 z m -0.05485,-1.71141 5.458296,-0.0454 c -2.14e-4,-0.11229 5.3e-5,-0.22461 8.05e-4,-0.33697 -0.0018,-0.27456 -7.83e-4,-0.54891 0.0031,-0.82304 l -5.451315,-0.11073 c -0.008,0.31084 -0.01288,0.62211 -0.01472,0.93377 7.52e-4,0.12754 0.002,0.25502 0.0038,0.38242 z m 0.0617,-2.60927 0.729073,0.0353 c 0.01022,-0.19764 0.0217,-0.3951 0.03443,-0.59236 l -0.727849,-0.0447 c -0.01314,0.20039 -0.02503,0.40098 -0.03565,0.60177 z m 0.13735,-1.88682 0.725012,0.0646 c 0.01806,-0.19679 0.03735,-0.39336 0.05788,-0.58972 l -0.723586,-0.0739 c -0.021,0.19943 -0.04077,0.39908 -0.0593,0.59896 z m 0.210902,-1.87496 1.903342,0.24684 c 0.0248,-0.19005 0.05078,-0.37989 0.07794,-0.56951 l -1.899053,-0.27068 c -0.02862,0.19753 -0.05603,0.39532 -0.08223,0.59335 z m 0.282668,-1.85926 0.715009,0.12155 c 0.03321,-0.19382 0.0676,-0.38739 0.103168,-0.58068 l -0.713184,-0.1304 c -0.03618,0.19623 -0.07118,0.39275 -0.104993,0.58953 z m 0.353246,-1.8443 0.709068,0.14908 c 0.04054,-0.1921 0.08224,-0.38391 0.125089,-0.57543 l -0.707043,-0.15772 c -0.04353,0.19439 -0.08591,0.38908 -0.127114,0.58407 z m 0.377261,-1.64641 5.240372,1.29182 c 0.09182,-0.37336 0.188647,-0.74557 0.290391,-1.11656 l -5.204133,-1.42796 c -0.114196,0.416 -0.2231,0.8336 -0.32663,1.2527 z m 0.679716,-2.47829 0.693228,0.20933 c 0.0565,-0.18721 0.114088,-0.37407 0.172763,-0.56058 l -0.690755,-0.2175 c -0.05951,0.18922 -0.117924,0.37881 -0.175236,0.56875 z m 0.57269,-1.77978 0.685242,0.23479 c 0.06341,-0.18531 0.12788,-0.37026 0.193418,-0.55482 l -0.682564,-0.24278 c -0.06644,0.18722 -0.131809,0.37482 -0.196096,0.56281 z m 0.63691,-1.75824 1.787875,0.68606 c 0.06835,-0.17828 0.13773,-0.35617 0.208121,-0.53368 l -1.780284,-0.70659 c -0.07295,0.18432 -0.144856,0.36906 -0.215712,0.55421 z m 0.698816,-1.73301 0.667385,0.28385 c 0.07651,-0.18032 0.154046,-0.36021 0.232589,-0.53967 l -0.664308,-0.29144 c -0.07958,0.18198 -0.158137,0.3644 -0.235666,0.54726 z m 0.760043,-1.70837 0.657514,0.30744 c 0.08283,-0.17757 0.166645,-0.35469 0.251449,-0.53135 l -0.654238,-0.31483 c -0.08591,0.17911 -0.170817,0.35869 -0.254725,0.53874 z m 0.735502,-1.51573 4.829807,2.44565 c 0.175693,-0.34568 0.355625,-0.68946 0.539711,-1.03124 l -4.773336,-2.56157 c -0.203281,0.38005 -0.402037,0.76246 -0.596182,1.14716 z m 1.210514,-2.26421 0.632745,0.35876 c 0.09638,-0.17039 0.193695,-0.34027 0.291929,-0.50964 l -0.629022,-0.36568 c -0.09949,0.17166 -0.19804,0.34385 -0.295652,0.51656 z m 0.947805,-1.61251 0.620833,0.3803 c 0.102347,-0.16744 0.205602,-0.33436 0.309757,-0.50072 l -0.616903,-0.38704 c -0.105475,0.1686 -0.21004,0.33776 -0.313687,0.50746 z m 1.002653,-1.58126 1.607304,1.06017 c 0.105519,-0.16011 0.211899,-0.31967 0.319131,-0.47868 l -1.596413,-1.0774 c -0.110891,0.16473 -0.220901,0.33003 -0.330022,0.49591 z m 1.054736,-1.54654 0.595122,0.4215 c 0.113416,-0.1604 0.227687,-0.32022 0.342806,-0.47944 l -0.590792,-0.42784 c -0.116573,0.16132 -0.232288,0.32325 -0.347136,0.48578 z m 1.106576,-1.51218 0.581323,0.44118 c 0.118707,-0.15664 0.238245,-0.31267 0.358604,-0.46807 l -0.576795,-0.44731 c -0.121879,0.15744 -0.242926,0.31551 -0.363132,0.4742 z m 1.039454,-1.33076 4.235626,3.41588 c 0.245681,-0.30413 0.494836,-0.60558 0.74738,-0.90428 l -4.158922,-3.51156 c -0.278484,0.33022 -0.553207,0.66357 -0.824084,0.99996 z m 1.6586,-1.96742 0.547625,0.48357 c 0.129877,-0.14719 0.260523,-0.2937 0.391929,-0.43953 l -0.542652,-0.48924 c -0.133074,0.14772 -0.265377,0.29612 -0.396902,0.4452 z m 1.262694,-1.385 0.531786,0.50117 c 0.134888,-0.14317 0.270521,-0.28565 0.406892,-0.42742 l -0.526604,-0.50665 c -0.138109,0.14358 -0.275469,0.28789 -0.412074,0.4329 z m 1.308132,-1.34402 1.36163,1.36918 c 0.136295,-0.13555 0.273289,-0.27039 0.410974,-0.40451 l -1.347438,-1.38311 c -0.142444,0.13874 -0.284168,0.27823 -0.425166,0.41844 z m 1.350429,-1.29984 0.498221,0.53452 c 0.143916,-0.13409 0.288525,-0.26743 0.43382,-0.40001 l -0.49264,-0.53961 c -0.147166,0.13427 -0.293635,0.2693 -0.439401,0.4051 z m 1.392844,-1.25572 0.480494,0.55026 c 0.148187,-0.1293 0.297042,-0.25783 0.446555,-0.38557 l -0.474713,-0.55515 c -0.151451,0.12936 -0.302233,0.25952 -0.452336,0.39046 z m 1.289116,-1.0915 3.45783,4.20249 c 0.301786,-0.24869 0.60628,-0.49395 0.913398,-0.73568 l -3.360892,-4.27794 c -0.339803,0.26651 -0.676609,0.53692 -1.010336,0.81113 z m 2.023976,-1.58791 0.437865,0.58372 c 0.156984,-0.11759 0.314574,-0.23434 0.472763,-0.35026 l -0.431643,-0.58814 c -0.160273,0.11738 -0.319937,0.23561 -0.478985,0.35468 z m 1.517355,-1.09728 0.4181,0.5974 c 0.161028,-0.1125 0.322639,-0.22414 0.484824,-0.33491 l -0.411667,-0.60163 c -0.16434,0.11217 -0.328095,0.22522 -0.491257,0.33914 z m 1.553347,-1.04651 1.050854,1.61308 c 0.160681,-0.1046 0.3219,-0.20832 0.483649,-0.31118 l -1.03336,-1.62371 c -0.167608,0.10637 -0.334658,0.21364 -0.501143,0.32181 z m 1.585895,-0.99291 0.376681,0.6229 c 0.168015,-0.10138 0.336561,-0.20184 0.50563,-0.30138 l -0.369848,-0.62674 c -0.171357,0.10081 -0.342181,0.20255 -0.512463,0.30522 z m 1.618848,-0.93901 0.355026,0.63472 c 0.171266,-0.0956 0.343036,-0.1902 0.515304,-0.28388 l -0.347994,-0.63835 c -0.174622,0.0949 -0.348737,0.19072 -0.522336,0.28751 z m 1.484489,-0.79795 2.496417,4.80549 c 0.344007,-0.17937 0.689957,-0.35454 1.037767,-0.52542 l -2.379247,-4.8607 c -0.387238,0.18891 -0.772245,0.38249 -1.154937,0.58063 z m 2.30664,-1.12569 0.303466,0.65924 c 0.177702,-0.0816 0.355848,-0.16221 0.534431,-0.24182 l -0.295995,-0.66241 c -0.181083,0.0806 -0.36172,0.16232 -0.541902,0.24499 z m 1.71179,-0.749332 0.279776,0.669002 c 0.180766,-0.0754 0.361952,-0.14983 0.543551,-0.2232 l -0.27209,-0.671978 c -0.184171,0.07435 -0.367919,0.149748 -0.551237,0.226176 z m 1.738298,-0.688733 0.674973,1.791875 c 0.17868,-0.0673 0.357735,-0.13348 0.537157,-0.19867 l -0.654178,-1.799206 c -0.186382,0.06761 -0.372369,0.136275 -0.557952,0.206001 z m 1.761133,-0.625759 0.230503,0.686644 c 0.185713,-0.06226 0.371794,-0.123446 0.558235,-0.183548 l -0.222418,-0.689225 c -0.189146,0.06095 -0.377923,0.122998 -0.56632,0.186129 z m 1.784588,-0.562017 0.20492,0.694529 c 0.187943,-0.05543 0.376228,-0.109763 0.564848,-0.162985 l -0.196636,-0.696911 c -0.191391,0.05401 -0.382438,0.10913 -0.573132,0.165367 z m 1.625572,-0.450113 1.351389,5.224864 c 0.372344,-0.0962 0.745867,-0.18736 1.120484,-0.27351 l -1.213986,-5.259843 c -0.42079,0.09744 -0.840114,0.200293 -1.257887,0.308489 z m 2.506592,-0.580769 0.144429,0.710125 c 0.192032,-0.03923 0.384345,-0.0773 0.576933,-0.114208 l -0.135709,-0.712049 c -0.195505,0.03754 -0.390725,0.07625 -0.585653,0.116132 z m 1.845998,-0.34115 0.116813,0.715958 c 0.194104,-0.03195 0.388465,-0.06271 0.583076,-0.09228 l -0.107876,-0.717685 c -0.1976,0.03013 -0.39494,0.06147 -0.592013,0.09401 z m 1.862985,-0.270695 0.233989,1.905572 c 0.190289,-0.02352 0.380792,-0.04586 0.5715,-0.067 l -0.209894,-1.909603 c -0.198768,0.02245 -0.397302,0.04613 -0.595595,0.07103 z m 1.876149,-0.198376 0.0597,0.725746 c 0.19701,-0.01674 0.39423,-0.03225 0.59164,-0.04651 l -0.0504,-0.727076 c -0.20054,0.01469 -0.40086,0.03064 -0.60097,0.04784 z m 1.89006,-0.124769 0.0302,0.729704 c 0.19822,-0.0089 0.39662,-0.01653 0.59519,-0.02289 l -0.0206,-0.730833 c -0.20176,0.0067 -0.40333,0.01473 -0.60472,0.02401 z m 1.71236,-0.04798 0.0228,5.460627 c 0.0562,1.3e-4 0.1123,3.9e-4 0.16847,7.6e-4 0.33075,-0.002 0.66121,-2.3e-4 0.99132,0.006 l 0.13326,-5.448806 c -0.37426,-0.0111 -0.74914,-0.01778 -1.12458,-0.02 -0.0637,3.75e-4 -0.12749,8.8e-4 -0.19122,0.0015 z m 2.60812,0.07442 -0.0382,0.728694 c 0.19752,0.01102 0.39485,0.02328 0.59199,0.03679 l 0.0476,-0.727449 c -0.20026,-0.01394 -0.40073,-0.02662 -0.60139,-0.03804 z m 1.88558,0.144791 -0.0676,0.72457 c 0.19666,0.01884 0.3931,0.0389 0.58932,0.0602 l 0.0768,-0.723123 c -0.19929,-0.02178 -0.3988,-0.04233 -0.59854,-0.06164 z m 1.87357,0.218195 -0.25439,1.902006 c 0.18992,0.02555 0.37962,0.05228 0.56909,0.08018 l 0.27817,-1.897665 c -0.19737,-0.02938 -0.395,-0.05755 -0.59287,-0.08452 z m 1.85771,0.289801 -0.12434,0.714442 c 0.19366,0.03395 0.38706,0.06909 0.58018,0.10539 l 0.13316,-0.712596 c -0.19605,-0.03693 -0.39239,-0.07268 -0.589,-0.107236 z m 1.8426,0.360231 -0.15181,0.708437 c 0.19192,0.04127 0.38355,0.08369 0.57488,0.127262 l 0.16043,-0.706391 c -0.19419,-0.04426 -0.3887,-0.08737 -0.5835,-0.129308 z m 1.64474,0.383421 -1.31172,5.235248 c 0.37302,0.0933 0.74489,0.19154 1.11552,0.29471 l 1.44754,-5.198686 c -0.41553,-0.11573 -0.83267,-0.226182 -1.25134,-0.331272 z m 2.47552,0.688862 -0.21191,0.692455 c 0.18699,0.05719 0.37363,0.115462 0.55991,0.17482 l 0.22007,-0.689961 c -0.18899,-0.0602 -0.37835,-0.119307 -0.56807,-0.177314 z m 1.77758,0.579168 -0.23732,0.684405 c 0.18509,0.06408 0.36979,0.129224 0.55412,0.19543 l 0.24527,-0.681706 c -0.18696,-0.06712 -0.37433,-0.133162 -0.56207,-0.198129 z m 1.75588,0.643237 -0.69255,1.785501 c 0.17803,0.069 0.35568,0.13901 0.53294,0.21005 l 0.71304,-1.777859 c -0.18406,-0.07361 -0.36854,-0.146174 -0.55343,-0.217692 z m 1.73051,0.704986 -0.28625,0.666425 c 0.18005,0.0772 0.35967,0.15532 0.53885,0.2345 l 0.29382,-0.66332 c -0.1817,-0.0802 -0.36384,-0.159429 -0.54642,-0.237605 z m 1.7057,0.766065 -0.30978,0.65649 c 0.17729,0.0834 0.35412,0.16789 0.53049,0.25331 l 0.31715,-0.65319 c -0.17882,-0.0865 -0.35811,-0.17207 -0.53786,-0.25661 z m 1.5132,0.74079 -2.46263,4.82175 c 0.34513,0.17692 0.68833,0.35807 1.02954,0.54336 l 2.57822,-4.76495 c -0.37937,-0.20459 -0.7611,-0.40468 -1.14513,-0.60016 z m 2.26011,1.21834 -0.36096,0.63158 c 0.17007,0.097 0.33963,0.19486 0.50867,0.29368 l 0.36786,-0.62784 c -0.17133,-0.10007 -0.34319,-0.19922 -0.51557,-0.29742 z m 1.60934,0.95332 -0.38243,0.6196 c 0.16711,0.10292 0.33368,0.20674 0.4997,0.31146 l 0.38914,-0.61565 c -0.16825,-0.10605 -0.33706,-0.21119 -0.50641,-0.31541 z m 1.57794,1.00801 -1.06563,1.60389 c 0.15976,0.10606 0.31898,0.21298 0.47764,0.32075 l 1.08281,-1.59294 c -0.16436,-0.11145 -0.32931,-0.22202 -0.49482,-0.3317 z m 1.54307,1.05995 -0.42351,0.59376 c 0.16003,0.11395 0.31947,0.22876 0.47832,0.34441 l 0.42982,-0.58941 c -0.16094,-0.11711 -0.32249,-0.23337 -0.48463,-0.34876 z m 1.50854,1.11163 -0.44311,0.5799 c 0.15625,0.11923 0.31188,0.23929 0.46689,0.36016 l 0.44924,-0.57535 c -0.15704,-0.12241 -0.31472,-0.24398 -0.47302,-0.36471 z m 1.32736,1.04387 -3.42991,4.22463 c 0.30335,0.24669 0.60401,0.49684 0.90191,0.75036 l 3.52527,-4.14759 c -0.32931,-0.27958 -0.66176,-0.5554 -0.99727,-0.8274 z m 1.962,1.6651 -0.48536,0.54606 c 0.14676,0.13037 0.29284,0.26149 0.43825,0.39338 l 0.49101,-0.54107 c -0.14728,-0.13356 -0.29525,-0.26635 -0.4439,-0.39837 z m 1.38087,1.26725 -0.5029,0.53016 c 0.14273,0.13535 0.28476,0.27145 0.42609,0.40829 l 0.50836,-0.52496 c -0.14313,-0.13858 -0.28698,-0.27641 -0.43155,-0.41349 z m 1.33973,1.31253 -1.37359,1.35717 c 0.1351,0.13673 0.26949,0.27416 0.40317,0.41228 l 1.38747,-1.34292 c -0.13828,-0.1429 -0.2773,-0.28508 -0.41705,-0.42653 z m 1.29541,1.35467 -0.53614,0.49647 c 0.13362,0.14435 0.26649,0.28939 0.39859,0.43512 l 0.5412,-0.49087 c -0.13379,-0.1476 -0.26834,-0.29451 -0.40365,-0.44072 z m 1.25112,1.39693 -0.55181,0.47868 c 0.12882,0.14861 0.25685,0.29788 0.3841,0.44781 l 0.55668,-0.47288 c -0.12886,-0.15187 -0.25852,-0.30308 -0.38897,-0.45361 z m 1.08723,1.29267 -4.21358,3.44389 c 0.24769,0.30257 0.49193,0.60784 0.73264,0.91572 l 4.28871,-3.34663 c -0.26538,-0.34067 -0.53466,-0.67836 -0.80777,-1.01298 z m 1.58117,2.02915 -0.58512,0.43591 c 0.11706,0.15737 0.23328,0.31534 0.34867,0.4739 l 0.58952,-0.42966 c -0.11684,-0.16066 -0.23453,-0.32071 -0.35307,-0.48015 z m 1.09219,1.52095 -0.59875,0.41608 c 0.11196,0.16139 0.22305,0.32336 0.33327,0.48591 l 0.60296,-0.40963 c -0.11162,-0.1647 -0.22411,-0.32883 -0.33748,-0.49236 z m 1.04125,1.55678 -1.61645,1.04535 c 0.10405,0.16102 0.20722,0.32257 0.30952,0.48465 l 1.62703,-1.0278 c -0.1058,-0.16796 -0.2125,-0.33536 -0.3201,-0.5022 z m 0.98751,1.58917 -0.62411,0.37454 c 0.1008,0.16834 0.20068,0.33722 0.29965,0.50662 l 0.62792,-0.36768 c -0.10022,-0.1717 -0.20137,-0.34286 -0.30346,-0.51348 z m 0.93345,1.62197 -0.63587,0.35282 c 0.095,0.17159 0.18901,0.34367 0.2821,0.51625 l 0.63948,-0.34577 c -0.0943,-0.17494 -0.18952,-0.34937 -0.28571,-0.5233 z m 0.79281,1.48718 -4.81364,2.47954 c 0.17814,0.34457 0.35208,0.69107 0.52171,1.03942 l 4.86853,-2.36205 c -0.18756,-0.38788 -0.37979,-0.77355 -0.5766,-1.15691 z m 1.11763,2.31049 -0.66025,0.30111 c 0.081,0.17799 0.16095,0.35641 0.23992,0.53527 l 0.6634,-0.29363 c -0.08,-0.18136 -0.16104,-0.36228 -0.24307,-0.54275 z m 0.74327,1.71441 -0.66995,0.27736 c 0.0748,0.18103 0.14853,0.36248 0.22125,0.54434 l 0.67291,-0.26966 c -0.0737,-0.18443 -0.14844,-0.36845 -0.22421,-0.55204 z m 0.68251,1.74077 -1.7942,0.66843 c 0.0666,0.17891 0.13217,0.3582 0.19671,0.53786 l 1.80149,-0.64759 c -0.0669,-0.18663 -0.13494,-0.37286 -0.204,-0.5587 z m 0.6194,1.76345 -0.68747,0.22796 c 0.0616,0.18594 0.12209,0.37225 0.18151,0.55892 l 0.69002,-0.21986 c -0.0603,-0.18938 -0.12162,-0.37839 -0.18406,-0.56702 z m 0.55549,1.78675 -0.69528,0.20231 c 0.0547,0.18816 0.10837,0.37666 0.16089,0.56549 l 0.69765,-0.19401 c -0.0533,-0.19161 -0.10772,-0.38288 -0.16326,-0.57379 z m 0.44411,1.62739 -5.23008,1.33157 c 0.0947,0.37268 0.18446,0.74653 0.26913,1.12147 l 5.26474,-1.19385 c -0.0959,-0.42121 -0.19715,-0.84097 -0.30379,-1.25919 z m 0.57137,2.50912 -0.71074,0.14168 c 0.0385,0.19221 0.0758,0.3847 0.11201,0.57746 l 0.71265,-0.13295 c -0.0368,-0.19568 -0.0748,-0.39108 -0.11392,-0.58619 z m 0.33413,1.84765 -0.71651,0.11401 c 0.0312,0.19426 0.0612,0.38878 0.09,0.58355 l 0.71822,-0.10505 c -0.0294,-0.19776 -0.06,-0.39527 -0.0917,-0.59251 z m 0.26352,1.86449 -1.90687,0.22641 c 0.0228,0.19042 0.0444,0.38105 0.0647,0.57189 l 1.91084,-0.20226 c -0.0217,-0.19891 -0.0446,-0.39759 -0.0687,-0.59604 z m 0.19104,1.8775 -0.72617,0.0567 c 0.016,0.19714 0.0307,0.39448 0.0442,0.59202 l 0.72748,-0.0474 c -0.0139,-0.20067 -0.0291,-0.40113 -0.0455,-0.60137 z m 0.11728,1.89126 -0.73006,0.0272 c 0.008,0.19833 0.0149,0.39684 0.0205,0.59552 l 0.73118,-0.0176 c -0.006,-0.20187 -0.0131,-0.40356 -0.0216,-0.60507 z"
       sodipodi:type="arc"
       sodipodi:ry="50"
       sodipodi:rx="50"
       sodipodi:cy="148.5"
       sodipodi:cx="105"
       inkscape:path-effect="#path-effect15"
       transform="matrix(0.88686478,0,0,0.88685887,11.88785,16.801458)" />
    <text
       xml:space="preserve"
       transform="matrix(0.26458333,0,0,0.26458333,4.967645,0.93706058)"
       id="text1"
       style="font-size:13.3333px;line-height:1.25;font-family:Inter;-inkscape-font-specification:Inter;white-space:pre;shape-inside:url(#rect1);display:inline"><tspan
         x="344.36133"
         y="636.56847"
         id="tspan4"><tspan
           style="font-style:italic;font-weight:300;-inkscape-font-specification:'Inter Light Italic';fill:#ffffff"
           id="tspan1">RPM x1000</tspan></tspan></text>
    <path
       d="m 69.929956,79.231112 v 14.405011 h 1.653868 V 79.231112 Z m 3.284338,0 v 1.932933 h 0.761061 v -1.932933 z m 2.391501,0 v 1.932933 h 0.762551 v -1.932933 z m 2.392991,0 v 5.10748 h 0.761091 v -5.10748 z m 2.391531,0 v 1.932933 h 0.762551 v -1.932933 z m 2.392991,0 v 1.932933 h 0.762551 v -1.932933 z"
       id="path1-6"
       style="display:none;stroke-width:0.875484"
       transform="matrix(0.63656243,0,0,1.1597554,-22.752043,-8.9313426)" />
  </g>
</svg>
